<?xml version="1.0" encoding="UTF-8" standalone="no"?>
<!DOCTYPE svg PUBLIC "-//W3C//DTD SVG 1.1//EN" "http://www.w3.org/Graphics/SVG/1.1/DTD/svg11.dtd">
<svg xmlns="http://www.w3.org/2000/svg" version="1.1" viewBox="0 0 256 256" width="256.0pt" height="256.0pt">
<path d="M 0.00 0.00 L 256.00 0.00 L 256.00 256.00 L 0.00 256.00 L 0.00 0.00 Z" fill="#fefefe" />
<path d="M 44.82 42.32 C 50.78 42.30 56.73 42.31 62.69 42.31 C 65.73 47.96 68.77 53.62 71.78 59.29 C 65.82 59.31 59.87 59.30 53.91 59.29 C 50.85 53.65 47.82 47.99 44.82 42.32 Z" fill="#00ccff" />
<path d="M 43.26 71.04 C 48.74 70.93 54.23 71.02 59.71 71.02 C 62.54 76.37 65.45 81.68 68.26 87.04 C 62.79 87.08 57.33 87.03 51.86 87.08 C 48.93 81.77 46.04 76.43 43.26 71.04 Z" fill="#2491eb" />
<path d="M 74.78 71.01 C 85.70 71.02 96.63 70.95 107.55 71.04 C 112.96 81.32 118.52 91.53 123.97 101.80 C 113.07 101.80 102.17 101.80 91.27 101.80 C 85.77 91.54 80.27 81.28 74.78 71.01 Z" fill="#1f35ff" />
<path d="M 137.55 80.56 C 144.69 80.35 151.86 80.56 159.00 80.48 C 166.17 80.36 173.32 81.32 180.08 83.77 C 180.12 95.28 179.99 106.79 180.15 118.31 C 165.93 118.44 151.71 118.33 137.49 118.36 C 137.52 105.78 137.37 93.13 137.55 80.56 Z" fill="#00ccff" />
<path d="M 180.08 83.77 C 195.92 89.40 208.85 102.23 214.53 118.06 C 203.08 118.25 191.58 117.78 180.15 118.31 C 179.99 106.79 180.12 95.28 180.08 83.77 Z" fill="#1f35ff" />
<path d="M 84.04 118.36 C 96.64 118.36 109.24 118.38 121.84 118.35 C 127.59 128.90 133.20 139.52 138.90 150.10 C 140.07 152.22 141.27 154.21 142.01 156.54 C 129.45 156.60 116.88 156.67 104.32 156.51 C 97.80 143.69 90.73 131.10 84.04 118.36 Z" fill="#2491eb" />
<path d="M 180.15 118.31 C 191.58 117.78 203.08 118.25 214.53 118.06 C 219.03 130.37 219.02 144.20 214.54 156.51 C 203.06 156.25 191.56 156.65 180.08 156.29 C 180.06 143.63 179.92 130.96 180.15 118.31 Z" fill="#2491eb" />
<path d="M 104.32 156.51 C 116.88 156.67 129.45 156.60 142.01 156.54 C 142.07 169.05 142.00 181.57 142.04 194.08 C 129.46 194.09 116.89 194.11 104.31 194.08 C 104.31 181.55 104.30 169.03 104.32 156.51 Z" fill="#1f35ff" />
<path d="M 142.14 156.21 C 154.79 156.27 167.44 156.12 180.08 156.29 C 180.07 167.79 180.10 179.30 180.07 190.81 C 167.28 195.52 155.54 193.75 142.20 194.10 C 142.13 181.47 142.24 168.84 142.14 156.21 Z" fill="#00ccff" />
<path d="M 180.08 156.29 C 191.56 156.65 203.06 156.25 214.54 156.51 C 208.83 172.36 195.94 185.17 180.07 190.81 C 180.10 179.30 180.07 167.79 180.08 156.29 Z" fill="#1f35ff" />
</svg>